<svg width="50" height="50" viewBox="0 0 50 50" fill="none" xmlns="http://www.w3.org/2000/svg">
<g clip-path="url(#clip0_4_2)">
<path d="M14.1111 18.5185C14.1111 8.29103 22.4022 0 32.6297 0H47.4445V14.8148C47.4445 25.0423 39.1535 33.3333 28.926 33.3333H14.1111V18.5185Z" fill="#E3630D"/>
<path d="M21.8889 25.6963C24.7333 25.6963 26.9852 26.6593 28.6444 28.5852C30.3333 30.4815 31.1778 33.0593 31.1778 36.3185V50.8519H22.4667V37.4741C22.4667 36.0519 22.0963 34.9408 21.3556 34.1408C20.6148 33.3111 19.6222 32.8963 18.3778 32.8963C17.0741 32.8963 16.0519 33.3111 15.3111 34.1408C14.5704 34.9408 14.2 36.0519 14.2 37.4741V50.8519H5.48889V17.963H14.2V29.4741C14.9704 28.3482 16.0074 27.4445 17.3111 26.763C18.6444 26.0519 20.1704 25.6963 21.8889 25.6963Z" fill="white"/>
</g>
<defs>
<clipPath id="clip0_4_2">
<rect width="50" height="50" fill="white"/>
</clipPath>
</defs>
</svg>
