<svg width="100" height="50" viewBox="0 0 100 50" fill="none" xmlns="http://www.w3.org/2000/svg">
<path d="M78 17C78 11.4772 82.4772 7 88 7H96V15C96 20.5228 91.5228 25 86 25H78V17Z" fill="#E3630D"/>
<path d="M11.2 19.416C12.736 19.416 13.952 19.936 14.848 20.976C15.76 22 16.216 23.392 16.216 25.152V33H11.512V25.776C11.512 25.008 11.312 24.408 10.912 23.976C10.512 23.528 9.976 23.304 9.304 23.304C8.6 23.304 8.048 23.528 7.648 23.976C7.248 24.408 7.048 25.008 7.048 25.776V33H2.344V15.24H7.048V21.456C7.464 20.848 8.024 20.36 8.728 19.992C9.448 19.608 10.272 19.416 11.2 19.416ZM25.0611 33.168C23.7171 33.168 22.5091 32.888 21.4371 32.328C20.3811 31.768 19.5491 30.968 18.9411 29.928C18.3331 28.888 18.0291 27.664 18.0291 26.256C18.0291 24.864 18.3331 23.648 18.9411 22.608C19.5651 21.568 20.4051 20.768 21.4611 20.208C22.5331 19.648 23.7411 19.368 25.0851 19.368C26.4291 19.368 27.6291 19.648 28.6851 20.208C29.7571 20.768 30.5971 21.568 31.2051 22.608C31.8291 23.648 32.1411 24.864 32.1411 26.256C32.1411 27.648 31.8291 28.872 31.2051 29.928C30.5971 30.968 29.7571 31.768 28.6851 32.328C27.6131 32.888 26.4051 33.168 25.0611 33.168ZM25.0611 29.088C25.7171 29.088 26.2611 28.848 26.6931 28.368C27.1411 27.872 27.3651 27.168 27.3651 26.256C27.3651 25.344 27.1411 24.648 26.6931 24.168C26.2611 23.688 25.7251 23.448 25.0851 23.448C24.4451 23.448 23.9091 23.688 23.4771 24.168C23.0451 24.648 22.8291 25.344 22.8291 26.256C22.8291 27.184 23.0371 27.888 23.4531 28.368C23.8691 28.848 24.4051 29.088 25.0611 29.088ZM51.6469 19.416C53.3429 19.416 54.6709 19.928 55.6309 20.952C56.6069 21.976 57.0949 23.376 57.0949 25.152V33H52.3909V25.776C52.3909 25.056 52.1909 24.496 51.7909 24.096C51.3909 23.696 50.8469 23.496 50.1589 23.496C49.4709 23.496 48.9269 23.696 48.5269 24.096C48.1269 24.496 47.9269 25.056 47.9269 25.776V33H43.2229V25.776C43.2229 25.056 43.0229 24.496 42.6229 24.096C42.2389 23.696 41.7029 23.496 41.0149 23.496C40.3109 23.496 39.7589 23.696 39.3589 24.096C38.9589 24.496 38.7589 25.056 38.7589 25.776V33H34.0549V19.536H38.7589V21.312C39.1749 20.736 39.7109 20.28 40.3669 19.944C41.0389 19.592 41.8069 19.416 42.6709 19.416C43.6629 19.416 44.5429 19.632 45.3109 20.064C46.0949 20.496 46.7109 21.104 47.1589 21.888C47.6389 21.152 48.2709 20.56 49.0549 20.112C49.8389 19.648 50.7029 19.416 51.6469 19.416ZM77.2641 19.416C78.9601 19.416 80.2881 19.928 81.2481 20.952C82.2241 21.976 82.7121 23.376 82.7121 25.152V33H78.0081V25.776C78.0081 25.056 77.8081 24.496 77.4081 24.096C77.0081 23.696 76.4641 23.496 75.7761 23.496C75.0881 23.496 74.5441 23.696 74.1441 24.096C73.7441 24.496 73.5441 25.056 73.5441 25.776V33H68.8401V25.776C68.8401 25.056 68.6401 24.496 68.2401 24.096C67.8561 23.696 67.3201 23.496 66.6321 23.496C65.9281 23.496 65.3761 23.696 64.9761 24.096C64.5761 24.496 64.3761 25.056 64.3761 25.776V33H59.6721V19.536H64.3761V21.312C64.7921 20.736 65.3281 20.28 65.9841 19.944C66.6561 19.592 67.4241 19.416 68.2881 19.416C69.2801 19.416 70.1601 19.632 70.9281 20.064C71.7121 20.496 72.3281 21.104 72.7761 21.888C73.2561 21.152 73.8881 20.56 74.6721 20.112C75.4561 19.648 76.3201 19.416 77.2641 19.416ZM98.1533 26.112C98.1533 26.48 98.1293 26.848 98.0813 27.216H89.1773C89.2253 27.952 89.4253 28.504 89.7773 28.872C90.1453 29.224 90.6093 29.4 91.1693 29.4C91.9533 29.4 92.5133 29.048 92.8493 28.344H97.8653C97.6573 29.272 97.2493 30.104 96.6413 30.84C96.0493 31.56 95.2973 32.128 94.3853 32.544C93.4733 32.96 92.4653 33.168 91.3613 33.168C90.0333 33.168 88.8493 32.888 87.8093 32.328C86.7853 31.768 85.9773 30.968 85.3853 29.928C84.8093 28.888 84.5213 27.664 84.5213 26.256C84.5213 24.848 84.8093 23.632 85.3853 22.608C85.9613 21.568 86.7613 20.768 87.7853 20.208C88.8253 19.648 90.0173 19.368 91.3613 19.368C92.6893 19.368 93.8653 19.64 94.8893 20.184C95.9133 20.728 96.7133 21.512 97.2893 22.536C97.8653 23.544 98.1533 24.736 98.1533 26.112ZM93.3533 24.936C93.3533 24.36 93.1613 23.912 92.7773 23.592C92.3933 23.256 91.9133 23.088 91.3373 23.088C90.7613 23.088 90.2893 23.248 89.9213 23.568C89.5533 23.872 89.3133 24.328 89.2013 24.936H93.3533Z" fill="white"/>
</svg>
